<?xml version="1.0" encoding="utf-8"?>
<!-- Generator: Adobe Illustrator 16.0.0, SVG Export Plug-In . SVG Version: 6.00 Build 0)  -->
<!DOCTYPE svg PUBLIC "-//W3C//DTD SVG 1.1//EN" "http://www.w3.org/Graphics/SVG/1.1/DTD/svg11.dtd">
<svg version="1.1" xmlns="http://www.w3.org/2000/svg" xmlns:xlink="http://www.w3.org/1999/xlink" x="0px" y="0px" width="660px"
	 height="225.257px" viewBox="0 0 660 225.257" enable-background="new 0 0 660 225.257" xml:space="preserve">
<g id="Layer_2">
	<g>
		<path fill="#00274D" d="M366.013,8.01l251.4,35.982c0,0,33.799,7.242,35.729,34.763c1.932,27.521,0,63.732,0,63.732
			s0,30.9-30.418,38.143c-30.416,7.243-182.07,28.434-182.07,28.434s-4.781,10.192-20.23,10.192c-15.451,0-181.06,0-181.06,0
			s-10.622-0.483-15.45-9.174L47.684,184.977c0,0-39.591-4.346-41.04-38.626c-1.448-34.28,0-73.389,0-73.389
			s1.563-24.797,37.177-29.935L294.25,7.854C294.25,7.854,332.71,3.581,366.013,8.01z"/>
		<path fill="none" stroke="#FFF0D8" stroke-width="12" stroke-miterlimit="10" d="M366.013,8.01l251.4,35.982
			c0,0,33.799,7.242,35.729,34.763c1.932,27.521,0,63.732,0,63.732s0,30.9-30.418,38.143c-30.416,7.243-182.07,28.434-182.07,28.434
			s-4.781,10.192-20.23,10.192c-15.451,0-181.06,0-181.06,0s-10.622-0.483-15.45-9.174L47.684,184.977
			c0,0-39.591-4.346-41.04-38.626c-1.448-34.28,0-73.389,0-73.389s1.563-24.797,37.177-29.935L294.25,7.854
			C294.25,7.854,332.71,3.581,366.013,8.01z"/>
		<path fill="none" stroke="#00274D" stroke-width="3" stroke-miterlimit="10" d="M366.013,8.01l251.4,35.982
			c0,0,33.799,7.242,35.729,34.763c1.932,27.521,0,63.732,0,63.732s0,30.9-30.418,38.143c-30.416,7.243-182.07,28.434-182.07,28.434
			s-4.781,10.192-20.23,10.192c-15.451,0-181.06,0-181.06,0s-10.622-0.483-15.45-9.174L47.684,184.977
			c0,0-39.591-4.346-41.04-38.626c-1.448-34.28,0-73.389,0-73.389s1.563-24.797,37.177-29.935L294.25,7.854
			C294.25,7.854,332.71,3.581,366.013,8.01z"/>
	</g>
	<ellipse fill="#F05133" stroke="#FFF0D8" stroke-width="6" stroke-miterlimit="10" cx="330" cy="56.582" rx="58.907" ry="44.538"/>
	<g id="Layer_1">
	</g>
	<line fill="none" stroke="#FFF0D8" stroke-width="6" stroke-miterlimit="10" x1="366.268" y1="194.719" x2="352.63" y2="96.017"/>
	<line fill="none" stroke="#FFF0D8" stroke-width="6" stroke-miterlimit="10" x1="293.733" y1="194.719" x2="307.37" y2="96.017"/>
	
		<line fill="none" stroke="#FFF0D8" stroke-width="6" stroke-miterlimit="10" x1="304.338" y1="132.334" x2="355.662" y2="132.334"/>
	
		<line fill="none" stroke="#FFF0D8" stroke-width="6" stroke-miterlimit="10" x1="362.737" y1="169.158" x2="297.264" y2="169.158"/>
	<line fill="none" stroke="#FFF0D8" stroke-width="6" stroke-miterlimit="10" x1="356.71" y1="134.667" x2="299.363" y2="166.334"/>
	
		<line fill="none" stroke="#FFF0D8" stroke-width="6" stroke-miterlimit="10" x1="362.346" y1="166.334" x2="303.291" y2="134.667"/>
	<line fill="none" stroke="#FFF0D8" stroke-width="6" stroke-miterlimit="10" x1="309.052" y1="99.334" x2="355.662" y2="129.001"/>
	<line fill="none" stroke="#FFF0D8" stroke-width="6" stroke-miterlimit="10" x1="351.472" y1="99.334" x2="304.338" y2="129.001"/>
	<line fill="none" stroke="#FFF0D8" stroke-width="6" stroke-miterlimit="10" x1="299.363" y1="171.334" x2="365.861" y2="191.77"/>
	
		<line fill="none" stroke="#FFF0D8" stroke-width="6" stroke-miterlimit="10" x1="361.423" y1="171.334" x2="294.387" y2="189.981"/>
	<rect x="272.25" y="188.334" fill="#00274D" width="118" height="14.917"/>
</g>
<g id="Layer_3">
	
		<line fill="#EF4136" stroke="#FFF0D8" stroke-width="6" stroke-miterlimit="10" x1="330.053" y1="82.084" x2="330.053" y2="99.334"/>
	<path fill="none" stroke="#FFF0D8" stroke-width="4" stroke-miterlimit="10" d="M311.886,51.001v19.083
		c0,0-1.083,11.25,18.167,11.25s17.917-11.667,17.917-11.667l0.02-18.667"/>
	<path fill="#FFF0D8" stroke="#FFF0D8" stroke-width="4" stroke-miterlimit="10" d="M318.636,54.584h22.75v11.833
		c0,0,1.167,8.167-7.333,8.167s-8.5,0-8.5,0s-7.083,1.25-7-8.417S318.636,54.584,318.636,54.584z"/>
	<path fill="#FFF0D8" stroke="#FFF0D8" stroke-width="4" stroke-miterlimit="10" d="M318.572,49.001h22.75V37.167
		c0,0,1.167-8.167-7.333-8.167s-8.5,0-8.5,0s-7.083-1.25-7,8.417S318.572,49.001,318.572,49.001z"/>
	<line fill="none" stroke="#FFF0D8" stroke-width="6" stroke-miterlimit="10" x1="308.803" y1="51.001" x2="315.22" y2="51.001"/>
	<line fill="none" stroke="#FFF0D8" stroke-width="6" stroke-miterlimit="10" x1="344.781" y1="51.001" x2="351.198" y2="51.001"/>
	<g>
		<line fill="none" stroke="#EF4136" stroke-width="2" stroke-miterlimit="10" x1="346.303" y1="33.669" x2="333.053" y2="33.669"/>
		<line fill="none" stroke="#EF4136" stroke-width="2" stroke-miterlimit="10" x1="346.303" y1="39.502" x2="333.053" y2="39.502"/>
		<line fill="none" stroke="#EF4136" stroke-width="2" stroke-miterlimit="10" x1="346.303" y1="45.336" x2="333.053" y2="45.336"/>
	</g>
	<g>
		<line fill="none" stroke="#EF4136" stroke-width="2" stroke-miterlimit="10" x1="327.428" y1="33.669" x2="314.178" y2="33.669"/>
		<line fill="none" stroke="#EF4136" stroke-width="2" stroke-miterlimit="10" x1="327.428" y1="39.502" x2="314.178" y2="39.502"/>
		<line fill="none" stroke="#EF4136" stroke-width="2" stroke-miterlimit="10" x1="327.428" y1="45.336" x2="314.178" y2="45.336"/>
	</g>
	<g>
		<path fill="#FFF0D8" d="M249.513,210.346l-5.402-19.203h3.145l2.983,10.656l3.4-10.495l0.054-0.161l0.215,0.067l0.215-0.067
			l0.054,0.161l3.4,10.509l2.983-10.67h3.145l-5.402,19.203h-1.115l-3.279-10.092l-3.279,10.092H249.513z"/>
		<path fill="#FFF0D8" d="M272.331,210.346l-5.402-19.203h3.145l2.983,10.656l3.4-10.495l0.054-0.161l0.215,0.067l0.215-0.067
			l0.054,0.161l3.4,10.509l2.983-10.67h3.145l-5.402,19.203h-1.115l-3.279-10.092l-3.279,10.092H272.331z"/>
		<path fill="#FFF0D8" d="M295.149,210.346l-5.402-19.203h3.145l2.983,10.656l3.4-10.495l0.054-0.161l0.215,0.067l0.215-0.067
			l0.054,0.161l3.4,10.509l2.983-10.67h3.145l-5.402,19.203h-1.115l-3.279-10.092l-3.279,10.092H295.149z"/>
		<path fill="#FFF0D8" d="M312.565,207.323h2.58v3.01h-2.58V207.323z"/>
		<path fill="#FFF0D8" d="M332.279,206.207v3.44c-1.164,0.466-2.41,0.699-3.736,0.699c-1.416,0-2.737-0.262-3.964-0.786
			c-1.227-0.524-2.302-1.234-3.225-2.13s-1.651-1.946-2.184-3.151c-0.533-1.205-0.799-2.497-0.799-3.877
			c0-1.371,0.266-2.667,0.799-3.89c0.533-1.223,1.261-2.282,2.184-3.178c0.923-0.896,1.998-1.604,3.225-2.123
			c1.228-0.52,2.549-0.78,3.964-0.78c1.326,0,2.572,0.229,3.736,0.686v3.48c-0.332-0.206-0.681-0.385-1.049-0.538
			c-0.841-0.349-1.737-0.524-2.687-0.524c-0.958,0-1.859,0.175-2.701,0.524c-0.842,0.35-1.577,0.835-2.204,1.458
			c-0.627,0.623-1.12,1.353-1.478,2.19c-0.358,0.838-0.538,1.736-0.538,2.694c0,0.959,0.179,1.857,0.538,2.694
			c0.358,0.838,0.851,1.568,1.478,2.19c0.627,0.623,1.362,1.111,2.204,1.465c0.842,0.354,1.743,0.531,2.701,0.531
			c0.95,0,1.846-0.179,2.687-0.538C331.598,206.593,331.947,206.414,332.279,206.207z"/>
		<path fill="#FFF0D8" d="M347.598,190.539l-4.488,7.687l4.179,12.121h-3.211l-2.984-8.667l-2.566,4.381v4.287l-3.023-0.027v-19.781
			h3.023v9.568l5.591-9.568H347.598z"/>
		<path fill="#FFF0D8" d="M350.824,210.346v-19.781h3.642c2.732,0,5.063,0.965,6.995,2.896c1.93,1.931,2.896,4.262,2.896,6.995
			c0,2.724-0.966,5.053-2.896,6.988c-1.932,1.935-4.263,2.903-6.995,2.903H350.824z M353.833,193.562v13.774h0.632
			c1.899,0,3.522-0.672,4.871-2.016s2.022-2.965,2.022-4.865c0-1.908-0.674-3.534-2.022-4.878s-2.972-2.016-4.871-2.016H353.833z"/>
		<path fill="#FFF0D8" d="M376.625,204.312v-13.855h3.01v13.855c0,1.667-0.586,3.089-1.76,4.267
			c-1.174,1.178-2.594,1.767-4.26,1.767s-3.089-0.589-4.267-1.767c-1.179-1.178-1.767-2.6-1.767-4.267v-13.855h3.01v13.855
			c0,0.833,0.295,1.545,0.887,2.137s1.303,0.887,2.137,0.887c0.833,0,1.543-0.295,2.13-0.887S376.625,205.146,376.625,204.312z"/>
		<path fill="#FFF0D8" d="M382.86,207.323h2.58v3.01h-2.58V207.323z"/>
		<path fill="#FFF0D8" d="M402.574,206.207v3.44c-1.164,0.466-2.41,0.699-3.736,0.699c-1.415,0-2.736-0.262-3.964-0.786
			s-2.302-1.234-3.226-2.13c-0.922-0.896-1.65-1.946-2.184-3.151c-0.533-1.205-0.799-2.497-0.799-3.877
			c0-1.371,0.266-2.667,0.799-3.89c0.533-1.223,1.262-2.282,2.184-3.178c0.924-0.896,1.998-1.604,3.226-2.123s2.549-0.78,3.964-0.78
			c1.326,0,2.572,0.229,3.736,0.686v3.48c-0.332-0.206-0.681-0.385-1.049-0.538c-0.842-0.349-1.737-0.524-2.688-0.524
			c-0.958,0-1.858,0.175-2.701,0.524c-0.842,0.35-1.576,0.835-2.203,1.458c-0.627,0.623-1.12,1.353-1.479,2.19
			c-0.357,0.838-0.537,1.736-0.537,2.694c0,0.959,0.18,1.857,0.537,2.694c0.358,0.838,0.852,1.568,1.479,2.19
			c0.627,0.623,1.361,1.111,2.203,1.465c0.843,0.354,1.743,0.531,2.701,0.531c0.95,0,1.846-0.179,2.688-0.538
			C401.893,206.593,402.242,206.414,402.574,206.207z"/>
		<path fill="#FFF0D8" d="M410.085,207.672l-1.062,2.742h-3.226l7.982-20.749l7.969,20.749h-3.225l-1.049-2.742H410.085z
			 M411.241,204.662h5.08l-2.54-6.598L411.241,204.662z"/>
	</g>
	<g>
		<path fill="#FFF0D8" d="M77.3,134.065v13.661c-4.625,1.85-9.57,2.775-14.835,2.775c-5.622,0-10.869-1.041-15.742-3.122
			c-4.875-2.082-9.144-4.9-12.807-8.458c-3.665-3.557-6.556-7.729-8.672-12.514c-2.117-4.784-3.175-9.916-3.175-15.395
			c0-5.443,1.058-10.593,3.175-15.449c2.116-4.856,5.007-9.062,8.672-12.621c3.664-3.557,7.933-6.368,12.807-8.431
			c4.874-2.063,10.121-3.095,15.742-3.095c5.265,0,10.21,0.907,14.835,2.722v13.821c-1.316-0.818-2.704-1.529-4.163-2.134
			c-3.344-1.388-6.902-2.082-10.672-2.082c-3.807,0-7.383,0.694-10.726,2.082c-3.344,1.387-6.262,3.317-8.751,5.79
			c-2.491,2.473-4.448,5.373-5.87,8.698c-1.423,3.327-2.135,6.893-2.135,10.7c0,3.807,0.711,7.373,2.135,10.699
			c1.422,3.327,3.379,6.226,5.87,8.698c2.49,2.473,5.407,4.412,8.751,5.816c3.343,1.406,6.919,2.108,10.726,2.108
			c3.771,0,7.328-0.711,10.672-2.134C74.596,135.595,75.983,134.884,77.3,134.065z"/>
		<path fill="#FFF0D8" d="M138.134,71.843l-17.823,30.524l16.596,48.134h-12.754l-11.847-34.419l-10.192,17.396v17.023
			l-12.006-0.107V71.843h12.006v37.995l22.199-37.995H138.134z"/>
		<path fill="#FFF0D8" d="M150.941,150.501V71.95h14.461c10.85,0,20.109,3.833,27.775,11.5c7.666,7.667,11.5,16.925,11.5,27.776
			c0,10.815-3.834,20.064-11.5,27.749c-7.667,7.684-16.925,11.526-27.775,11.526H150.941z M162.895,83.85v54.697h2.508
			c7.542,0,13.989-2.668,19.344-8.004c5.354-5.336,8.031-11.775,8.031-19.317c0-7.578-2.678-14.035-8.031-19.371
			c-5.355-5.336-11.803-8.004-19.344-8.004H162.895z"/>
		<path fill="#FFF0D8" d="M253.399,126.541V71.523h11.953v55.018c0,6.617-2.331,12.265-6.991,16.943
			c-4.661,4.678-10.299,7.017-16.916,7.017s-12.265-2.339-16.943-7.017c-4.679-4.678-7.017-10.326-7.017-16.943V71.523h11.953
			v55.018c0,3.308,1.174,6.137,3.522,8.484c2.348,2.348,5.176,3.522,8.485,3.522s6.127-1.174,8.458-3.522
			C252.233,132.678,253.399,129.849,253.399,126.541z"/>
	</g>
	<g>
		<path fill="#FFF0D8" d="M426.384,105.889c3.664,2.1,6.563,4.963,8.698,8.591c2.348,3.985,3.522,8.147,3.522,12.487
			c0,4.269-1.14,8.37-3.416,12.3c-2.277,3.931-5.479,6.982-9.605,9.152s-8.432,3.255-12.914,3.255s-8.787-1.085-12.914-3.255
			s-7.328-5.221-9.605-9.152c-2.276-3.931-3.414-8.031-3.414-12.3c0-4.34,1.154-8.502,3.468-12.487
			c2.135-3.628,5.034-6.492,8.698-8.591c-1.707-1.422-3.131-3.13-4.27-5.123c-1.85-3.13-2.774-6.421-2.774-9.872
			c0-3.45,0.925-6.768,2.774-9.952c1.85-3.184,4.43-5.63,7.738-7.337c3.309-1.708,6.741-2.562,10.299-2.562
			c3.451,0,6.831,0.854,10.139,2.562c3.309,1.708,5.906,4.154,7.792,7.337c1.885,3.184,2.828,6.502,2.828,9.952
			c0,3.451-0.907,6.742-2.722,9.872C429.568,102.759,428.126,104.467,426.384,105.889z M398.742,126.915
			c0,2.277,0.613,4.474,1.842,6.59c1.227,2.117,2.943,3.771,5.148,4.963c2.206,1.192,4.518,1.788,6.938,1.788
			c2.419,0,4.731-0.596,6.938-1.788c2.205-1.192,3.922-2.846,5.149-4.963c1.228-2.116,1.841-4.313,1.841-6.59
			c0-2.348-0.631-4.589-1.895-6.724c-1.263-2.134-2.988-3.771-5.176-4.909c-2.188-1.138-4.475-1.708-6.857-1.708
			s-4.688,0.569-6.91,1.708c-2.224,1.139-3.949,2.775-5.176,4.909C399.355,122.325,398.742,124.566,398.742,126.915z
			 M403.438,91.321c0,1.494,0.409,2.944,1.228,4.349c0.818,1.406,1.956,2.5,3.415,3.282c1.458,0.783,2.988,1.174,4.589,1.174
			c1.565,0,3.086-0.391,4.562-1.174c1.477-0.782,2.615-1.876,3.416-3.282c0.801-1.405,1.2-2.855,1.2-4.349
			c0-1.565-0.419-3.05-1.254-4.456c-0.837-1.405-1.975-2.49-3.415-3.255c-1.441-0.765-2.944-1.147-4.51-1.147
			s-3.086,0.382-4.562,1.147c-1.477,0.766-2.623,1.85-3.441,3.255C403.847,88.271,403.438,89.756,403.438,91.321z"/>
		<path fill="#FFF0D8" d="M491.06,105.889c3.664,2.1,6.564,4.963,8.699,8.591c2.348,3.985,3.521,8.147,3.521,12.487
			c0,4.269-1.139,8.37-3.416,12.3c-2.276,3.931-5.479,6.982-9.605,9.152s-8.431,3.255-12.913,3.255
			c-4.483,0-8.788-1.085-12.914-3.255c-4.128-2.169-7.329-5.221-9.605-9.152c-2.276-3.931-3.415-8.031-3.415-12.3
			c0-4.34,1.155-8.502,3.469-12.487c2.135-3.628,5.033-6.492,8.697-8.591c-1.707-1.422-3.131-3.13-4.269-5.123
			c-1.851-3.13-2.774-6.421-2.774-9.872c0-3.45,0.924-6.768,2.774-9.952c1.85-3.184,4.429-5.63,7.737-7.337
			c3.309-1.708,6.742-2.562,10.3-2.562c3.45,0,6.831,0.854,10.139,2.562c3.309,1.708,5.905,4.154,7.792,7.337
			c1.885,3.184,2.828,6.502,2.828,9.952c0,3.451-0.908,6.742-2.723,9.872C494.244,102.759,492.803,104.467,491.06,105.889z
			 M463.417,126.915c0,2.277,0.614,4.474,1.842,6.59c1.228,2.117,2.943,3.771,5.149,4.963s4.518,1.788,6.938,1.788
			c2.419,0,4.731-0.596,6.937-1.788c2.206-1.192,3.923-2.846,5.15-4.963c1.227-2.116,1.841-4.313,1.841-6.59
			c0-2.348-0.632-4.589-1.895-6.724c-1.263-2.134-2.988-3.771-5.177-4.909c-2.188-1.138-4.474-1.708-6.856-1.708
			c-2.384,0-4.688,0.569-6.911,1.708c-2.223,1.139-3.948,2.775-5.176,4.909C464.032,122.325,463.417,124.566,463.417,126.915z
			 M468.115,91.321c0,1.494,0.408,2.944,1.227,4.349c0.818,1.406,1.957,2.5,3.416,3.282c1.458,0.783,2.988,1.174,4.589,1.174
			c1.565,0,3.086-0.391,4.562-1.174c1.476-0.782,2.614-1.876,3.415-3.282c0.801-1.405,1.201-2.855,1.201-4.349
			c0-1.565-0.419-3.05-1.254-4.456c-0.837-1.405-1.975-2.49-3.416-3.255c-1.44-0.765-2.943-1.147-4.509-1.147
			s-3.087,0.382-4.562,1.147c-1.478,0.766-2.624,1.85-3.442,3.255C468.523,88.271,468.115,89.756,468.115,91.321z"/>
		<path fill="#FFF0D8" d="M516.088,138.494h10.245v11.954h-10.245V138.494z"/>
		<path fill="#FFF0D8" d="M539.248,71.577h20.492v78.924h-12.008V83.903h-8.591L539.248,71.577z"/>
		<path fill="#FFF0D8" d="M570.203,100.7h23.074v7.578h-15.462v18.405h15.462v7.579h-15.462v16.239h-7.612V100.7z"/>
		<path fill="#FFF0D8" d="M620.207,127.225l11.232-17.221l7.578-11.604v52.102h-7.578v-26.626l-11.232,17.221l-11.232-17.221v26.626
			h-7.578V98.399l7.578,11.604L620.207,127.225z"/>
	</g>
	<g>
		<polygon fill="#FFF0D8" points="408.772,40.709 478.081,46.525 477.057,58.729 		"/>
		<polygon fill="#FFF0D8" points="539.229,55.7 469.918,49.884 470.942,37.681 		"/>
	</g>
	<g>
		<polygon fill="#FFF0D8" points="251.229,40.709 181.92,46.525 182.943,58.729 		"/>
		<polygon fill="#FFF0D8" points="120.772,55.7 190.083,49.884 189.06,37.681 		"/>
	</g>
</g>
<g id="Layer_4">
	<g>
		<g>
			<path fill="none" stroke="#FFFFFF" stroke-miterlimit="10" d="M147.761,160.462"/>
		</g>
	</g>
	<g>
	</g>
	<g>
	</g>
	<g>
	</g>
	<g>
	</g>
	<g>
	</g>
	<g>
	</g>
</g>
</svg>
