<?xml version="1.0" encoding="utf-8"?>
<!-- Generator: Adobe Illustrator 16.0.0, SVG Export Plug-In . SVG Version: 6.00 Build 0)  -->
<!DOCTYPE svg PUBLIC "-//W3C//DTD SVG 1.1//EN" "http://www.w3.org/Graphics/SVG/1.1/DTD/svg11.dtd">
<svg version="1.1" id="Layer_1" xmlns="http://www.w3.org/2000/svg" xmlns:xlink="http://www.w3.org/1999/xlink" x="0px" y="0px"
	 width="416.889px" height="832.5px" viewBox="0 83.5 416.889 832.5" enable-background="new 0 83.5 416.889 832.5"
	 xml:space="preserve">
<path d="M330.639,813.5c12.5-4.167,22.709-0.208,30.625,11.875c7.917,12.083,6.459,23.125-4.375,33.125
	c-3.333,3.333-10.625,8.75-21.875,16.25S304.181,891,276.264,901c-27.916,10-56.041,15-84.375,15
	c-72.5,0-122.083-26.25-148.75-78.75c-23.333-49.167-19.167-105,12.5-167.5l52.5-103.75c18.333-36.667,19.167-60.833,2.5-72.5
	c-3.333-3.333-10.417-5-21.25-5c-7.5,0-15.625,0.833-24.375,2.5s-16.042,3.333-21.875,5l-7.5,2.5
	c-12.5,4.167-22.708,0.417-30.625-11.25c-7.917-11.667-6.458-22.5,4.375-32.5c4.167-4.167,11.458-9.792,21.875-16.875
	c10.417-7.083,29.583-15.833,57.5-26.25C116.681,401.208,144.806,396,173.139,396c74.167,0,124.167,26.25,150,78.75
	c23.334,49.167,19.167,105-12.5,167.5L258.139,746c-18.333,37.5-19.166,62.083-2.5,73.75c2.5,2.5,9.584,3.75,21.25,3.75
	c7.5,0,15.625-0.833,24.375-2.5s16.042-3.333,21.875-5L330.639,813.5z M156.889,213.5c0-86.667,43.333-130,130-130
	c86.667,0,130,43.333,130,130s-43.333,130-130,130C200.222,343.5,156.889,300.167,156.889,213.5z"/>
</svg>
